<svg width="1200" height="680" viewBox="0 0 1200 680" fill="none" xmlns="http://www.w3.org/2000/svg">
<rect width="1200" height="680" rx="32" fill="#08090B"/>
<defs><linearGradient id="g" x1="0" y1="0" x2="1200" y2="680"><stop stop-color="#1f2937"/><stop offset="1" stop-color="#020617"/></linearGradient></defs>
<rect x="40" y="40" width="1120" height="600" rx="28" fill="url(#g)" stroke="#ffffff" stroke-opacity="0.12"/>
<text x="80" y="105" fill="#fff" font-family="Arial" font-size="34" font-weight="700">Waitily Architecture</text>
<text x="80" y="137" fill="#a1a1aa" font-family="Arial" font-size="16">Demand aggregation, offer outcomes and admin intelligence</text>
<g font-family="Arial" font-size="16" font-weight="700">
<rect x="80" y="210" width="210" height="86" rx="18" fill="#111827" stroke="#fff" stroke-opacity=".14"/><text x="112" y="260" fill="#fff">Buyer / Visitor</text>
<rect x="380" y="170" width="230" height="86" rx="18" fill="#111827" stroke="#fff" stroke-opacity=".14"/><text x="420" y="220" fill="#fff">Next.js App Router</text>
<rect x="380" y="300" width="230" height="86" rx="18" fill="#111827" stroke="#fff" stroke-opacity=".14"/><text x="430" y="350" fill="#fff">Server Actions</text>
<rect x="700" y="235" width="220" height="86" rx="18" fill="#111827" stroke="#fff" stroke-opacity=".14"/><text x="755" y="285" fill="#fff">Prisma + DB</text>
<rect x="700" y="390" width="220" height="86" rx="18" fill="#111827" stroke="#fff" stroke-opacity=".14"/><text x="740" y="440" fill="#fff">Route Handlers</text>
<rect x="980" y="170" width="140" height="86" rx="18" fill="#111827" stroke="#fff" stroke-opacity=".14"/><text x="1017" y="220" fill="#fff">Vercel</text>
<rect x="980" y="390" width="140" height="86" rx="18" fill="#111827" stroke="#fff" stroke-opacity=".14"/><text x="1007" y="440" fill="#fff">Offers</text>
<rect x="380" y="500" width="230" height="86" rx="18" fill="#111827" stroke="#fff" stroke-opacity=".14"/><text x="410" y="550" fill="#fff">Admin Intelligence</text>
</g>
<g stroke="#34d399" stroke-width="3" stroke-linecap="round" opacity=".8">
<path d="M290 253 H380"/><path d="M495 256 V300"/><path d="M610 343 H700"/><path d="M610 213 H700"/><path d="M920 278 L980 213"/><path d="M810 321 V390"/><path d="M920 433 H980"/><path d="M700 475 L610 520"/>
</g>
<g fill="#a1a1aa" font-family="Arial" font-size="14">
<text x="82" y="360">Public pages: landing, request form, demand pool pages, legal disclosure.</text>
<text x="82" y="390">Business logic: normalization, classification, pool lifecycle and offer ranking.</text>
<text x="82" y="420">Intelligence: opportunity score, conversion score, category and event insights.</text>
</g>
</svg>
